<svg id="Logo" xmlns="http://www.w3.org/2000/svg" width="100%" height="100%" viewBox="0 0 31.249 31.444"><g id="Groupe_143" data-name="Groupe 143" transform="translate(0 0)"><path id="Trac\xE9_73" data-name="Trac\xE9 73" d="M127.816,137.347l-6.747-6.747h0l-7.734,7.785-.035.035,6.73,6.73c1.644,1.644,5.225,1.54,7.284-.5C129.338,142.572,129.442,138.974,127.816,137.347Z" transform="translate(-97.694 -114.9)" fill="#fff" opacity="0.2"></path><path id="Trac\xE9_74" data-name="Trac\xE9 74" d="M120.968,55.535l6.747-6.747c1.644-1.644,1.54-5.225-.5-7.284-2.042-2.042-5.657-2.163-7.284-.519l-6.73,6.73.035.035Z" transform="translate(-97.612 -39.852)" fill="#fff" opacity="0.2"></path><path id="Trac\xE9_75" data-name="Trac\xE9 75" d="M37.7,62.509l-6.834-6.851,7.8-7.8.017-.017.035.035-.035-.035-4.914-4.914S31.162,40,28.619,40c-2.907,0-5.519,2.474-5.519,4.792V66.626c0,2.318,2.612,4.792,5.5,4.792,2.561,0,5.138-2.958,5.138-2.958l4.931-4.965-.017-.017Z" transform="translate(-23.1 -39.974)" fill="#fff"></path></g><path id="Trac\xE9_76" data-name="Trac\xE9 76" d="M82.637,94.172l.952-.969h0l-7.751-7.785L75.82,85.4l-.017.017L68,93.2l6.834,6.851.969.952.017.017h0l.035-.035Z" transform="translate(-60.232 -77.52)" fill="#fff" opacity="0.6"></path></svg>