<svg xmlns="http://www.w3.org/2000/svg" width="15" height="15" viewBox="0 0 16 16"><g id="Groupe_6013" data-name="Groupe 6013" transform="translate(1998.737 607.875)"><path id="Trac\xE9_2298" data-name="Trac\xE9 2298" d="M-1990.737-607.875a8,8,0,0,0-8,8,8,8,0,0,0,8,8,8,8,0,0,0,8-8A8,8,0,0,0-1990.737-607.875Zm-4.35,10.272,3.834-6.757c.163-.287.246-.43.349-.484a.4.4,0,0,1,.358,0c.1.053.186.2.349.484l.788,1.375,0,.007a2.613,2.613,0,0,1,.3.627,1.155,1.155,0,0,1,0,.546,2.581,2.581,0,0,1-.307.635l-2.013,3.56-.005.01a2.53,2.53,0,0,1-.392.586,1.167,1.167,0,0,1-.477.277,2.822,2.822,0,0,1-.71.045h-1.553a1.247,1.247,0,0,1-.586-.063.4.4,0,0,1-.179-.309C-1995.328-597.179-1995.247-597.321-1995.087-597.6Zm9,.536a.393.393,0,0,1-.179.311,1.233,1.233,0,0,1-.591.065h-2.224a1.245,1.245,0,0,1-.591-.064.394.394,0,0,1-.179-.31c-.006-.115.075-.256.238-.536l0-.006,1.11-1.907c.164-.281.246-.421.348-.474a.389.389,0,0,1,.356,0c.1.052.181.185.338.451l.013.021,1.114,1.907.016.028C-1986.162-597.315-1986.083-597.179-1986.089-597.067Z" transform="translate(0 0)" fill="#fff"></path></g></svg>